<svg width="727px" height="1000px"
 viewBox="0.00 0.00 704.16 968.32" xmlns="http://www.w3.org/2000/svg" xmlns:xlink="http://www.w3.org/1999/xlink">
<g id="graph0" class="graph" transform="scale(1.0 1.0) rotate(0) translate(4 964.32)">
<title>ContextMapGraph</title>
<polygon fill="white" stroke="transparent" points="-4,4 -4,-964.32 700.16,-964.32 700.16,4 -4,4"/>
<!-- BodegaManagement -->
<g id="node1" class="node">
<title>BodegaManagement</title>
<polygon fill="none" stroke="black" stroke-width="2" points="66.1,-17.09 72.23,-15.05 78.57,-13.11 85.11,-11.28 91.82,-9.57 98.68,-7.98 105.65,-6.51 112.72,-5.19 119.85,-4 127.04,-2.96 134.24,-2.07 141.44,-1.34 148.62,-0.76 155.76,-0.35 162.82,-0.09 169.81,-0 176.69,-0.07 183.45,-0.3 190.08,-0.69 196.55,-1.24 202.86,-1.94 209,-2.79 214.94,-3.78 220.68,-4.92 226.22,-6.2 231.53,-7.6 236.62,-9.12 241.48,-10.76 246.11,-12.51 250.49,-14.36 254.62,-16.3 258.51,-18.33 262.14,-20.43 265.51,-22.59 268.63,-24.82 271.49,-27.09 274.08,-29.4 276.42,-31.75 278.49,-34.12 280.3,-36.5 281.84,-38.89 283.11,-41.28 284.12,-43.66 284.85,-46.02 285.32,-48.36 285.52,-50.68 285.44,-52.95 285.09,-55.19 284.46,-57.38 283.56,-59.53 282.38,-61.61 280.91,-63.64 279.17,-65.61 277.14,-67.51 274.83,-69.34 272.24,-71.1 269.37,-72.79 266.21,-74.41 262.77,-75.95 259.05,-77.41 255.05,-78.8 250.78,-80.1 246.24,-81.33 241.43,-82.48 236.36,-83.55 231.04,-84.54 225.48,-85.45 219.68,-86.27 213.66,-87.02 207.43,-87.69 201,-88.27 194.38,-88.77 187.6,-89.19 180.66,-89.53 173.59,-89.79 166.41,-89.96 159.13,-90.04 151.78,-90.04 144.39,-89.96 136.96,-89.78 129.54,-89.52 122.14,-89.17 114.78,-88.73 107.51,-88.19 100.33,-87.57 93.28,-86.85 86.38,-86.03 79.67,-85.12 73.16,-84.11 66.88,-83.01 60.86,-81.81 55.12,-80.52 49.69,-79.13 44.58,-77.64 39.82,-76.06 35.42,-74.4 31.42,-72.64 27.81,-70.79 24.63,-68.86 21.87,-66.85 19.56,-64.77 17.7,-62.61 16.3,-60.38 15.36,-58.1 14.9,-55.75 14.9,-53.36 15.37,-50.93 16.31,-48.46 17.71,-45.97 19.56,-43.45 21.86,-40.93 24.59,-38.4 27.74,-35.88 31.3,-33.37 35.25,-30.89 39.58,-28.45 44.26,-26.05 49.27,-23.71 54.6,-21.42 60.22,-19.21 66.1,-17.09"/>
<text text-anchor="middle" x="159.16" y="-44.7" font-family="sans-serif" font-size="16.00">BodegaManagement</text>
</g>
<!-- CDManagement -->
<g id="node2" class="node">
<title>CDManagement</title>
<polygon fill="none" stroke="black" stroke-width="2" points="531.39,-23.11 535.66,-25.43 539.66,-27.79 543.36,-30.21 546.75,-32.66 549.82,-35.14 552.55,-37.64 554.93,-40.15 556.95,-42.66 558.6,-45.16 559.88,-47.64 560.76,-50.1 561.26,-52.53 561.37,-54.91 561.09,-57.25 560.41,-59.54 559.34,-61.77 557.89,-63.94 556.06,-66.03 553.86,-68.06 551.3,-70 548.38,-71.86 545.13,-73.64 541.55,-75.33 537.67,-76.94 533.48,-78.45 529.03,-79.87 524.32,-81.19 519.36,-82.43 514.2,-83.56 508.83,-84.6 503.29,-85.55 497.59,-86.41 491.77,-87.17 485.83,-87.83 479.81,-88.41 473.71,-88.89 467.58,-89.29 461.42,-89.59 455.26,-89.81 449.11,-89.94 443.01,-89.98 436.95,-89.93 430.98,-89.8 425.09,-89.59 419.31,-89.29 413.66,-88.91 408.14,-88.45 402.76,-87.9 397.55,-87.27 392.52,-86.56 387.66,-85.77 383,-84.89 378.54,-83.94 374.28,-82.9 370.23,-81.78 366.4,-80.58 362.79,-79.3 359.41,-77.94 356.26,-76.5 353.33,-74.98 350.63,-73.39 348.17,-71.72 345.94,-69.97 343.94,-68.16 342.17,-66.27 340.64,-64.32 339.33,-62.3 338.26,-60.22 337.41,-58.09 336.79,-55.91 336.4,-53.67 336.24,-51.4 336.3,-49.09 336.59,-46.75 337.09,-44.38 337.83,-42 338.78,-39.61 339.96,-37.21 341.35,-34.82 342.97,-32.45 344.81,-30.09 346.86,-27.77 349.14,-25.48 351.63,-23.25 354.34,-21.06 357.27,-18.95 360.41,-16.9 363.76,-14.94 367.32,-13.07 371.08,-11.3 375.05,-9.63 379.21,-8.08 383.57,-6.65 388.11,-5.34 392.83,-4.17 397.73,-3.15 402.79,-2.26 408,-1.52 413.36,-0.94 418.85,-0.51 424.46,-0.25 430.18,-0.14 435.98,-0.19 441.87,-0.4 447.82,-0.78 453.81,-1.31 459.83,-2 465.85,-2.85 471.87,-3.84 477.85,-4.99 483.78,-6.27 489.64,-7.69 495.41,-9.24 501.06,-10.92 506.57,-12.7 511.93,-14.6 517.12,-16.6 522.1,-18.69 526.87,-20.87 531.39,-23.11"/>
<text text-anchor="middle" x="441.16" y="-44.7" font-family="sans-serif" font-size="16.00">CDManagement</text>
</g>
<!-- EjecucionManagement -->
<g id="node3" class="node">
<title>EjecucionManagement</title>
<polygon fill="none" stroke="black" stroke-width="2" points="173.02,-214.93 168.6,-212.41 164.56,-209.85 160.92,-207.26 157.68,-204.65 154.88,-202.03 152.51,-199.41 150.6,-196.8 149.15,-194.21 148.17,-191.65 147.67,-189.13 147.65,-186.65 148.11,-184.23 149.06,-181.86 150.49,-179.56 152.39,-177.34 154.77,-175.2 157.61,-173.14 160.91,-171.17 164.65,-169.29 168.81,-167.51 173.39,-165.83 178.37,-164.25 183.72,-162.78 189.43,-161.41 195.47,-160.14 201.82,-158.99 208.46,-157.94 215.37,-156.99 222.51,-156.15 229.85,-155.42 237.38,-154.79 245.07,-154.26 252.88,-153.83 260.79,-153.49 268.77,-153.26 276.79,-153.11 284.83,-153.06 292.86,-153.1 300.85,-153.23 308.78,-153.44 316.63,-153.73 324.36,-154.11 331.96,-154.57 339.4,-155.1 346.67,-155.72 353.75,-156.4 360.61,-157.17 367.24,-158 373.63,-158.91 379.76,-159.89 385.62,-160.94 391.2,-162.06 396.48,-163.25 401.47,-164.51 406.14,-165.84 410.5,-167.24 414.54,-168.7 418.26,-170.23 421.65,-171.83 424.71,-173.49 427.44,-175.21 429.84,-177 431.9,-178.84 433.64,-180.75 435.05,-182.71 436.13,-184.72 436.88,-186.79 437.32,-188.9 437.43,-191.05 437.23,-193.25 436.72,-195.47 435.9,-197.73 434.77,-200.01 433.34,-202.31 431.61,-204.61 429.59,-206.93 427.29,-209.24 424.69,-211.54 421.82,-213.82 418.67,-216.08 415.24,-218.31 411.55,-220.49 407.6,-222.62 403.39,-224.7 398.93,-226.7 394.22,-228.64 389.27,-230.48 384.09,-232.24 378.68,-233.89 373.05,-235.43 367.21,-236.86 361.17,-238.16 354.94,-239.34 348.52,-240.38 341.94,-241.27 335.2,-242.02 328.32,-242.61 321.31,-243.05 314.18,-243.34 306.95,-243.46 299.64,-243.41 292.27,-243.2 284.85,-242.83 277.41,-242.3 269.96,-241.6 262.52,-240.74 255.13,-239.73 247.79,-238.56 240.54,-237.25 233.39,-235.79 226.37,-234.19 219.51,-232.47 212.83,-230.62 206.35,-228.65 200.09,-226.58 194.09,-224.41 188.36,-222.15 182.92,-219.81 177.8,-217.4 173.02,-214.93"/>
<text text-anchor="middle" x="300.16" y="-191.02" font-family="sans-serif" font-size="16.00">EjecucionManagement</text>
</g>
<!-- EjecucionManagement&#45;&gt;BodegaManagement -->
<g id="edge2" class="edge">
<title>EjecucionManagement&#45;&gt;BodegaManagement</title>
<path fill="none" stroke="black" stroke-width="2" d="M241.5,-154.3C231.21,-146.17 220.98,-137.25 212.16,-128 201.27,-116.57 191.09,-102.67 182.63,-89.77"/>
<text text-anchor="middle" x="287.66" y="-118.4" font-family="sans-serif" font-size="12.00"> &#160;&#160;&#160;&#160;&#160;&#160;&#160;&#160;&#160;&#160;&#160;&#160;&#160;&#160;&#160;&#160;&#160;&#160;&#160;&#160;&#160;&#160;&#160;&#160;&#160;&#160;&#160;&#160;&#160;&#160;&#160;&#160;&#160;&#160;&#160;&#160;&#160;&#160;&#160;</text>
<polygon fill="white" stroke="transparent" points="176.63,-80.77 176.63,-97.77 189.63,-97.77 189.63,-80.77 176.63,-80.77"/>
<text text-anchor="start" x="178.63" y="-86.17" font-family="sans-serif" font-size="12.00">D</text>
<polygon fill="white" stroke="transparent" points="235.5,-145.3 235.5,-162.3 248.5,-162.3 248.5,-145.3 235.5,-145.3"/>
<text text-anchor="start" x="237.5" y="-150.7" font-family="sans-serif" font-size="12.00">U</text>
</g>
<!-- EjecucionManagement&#45;&gt;CDManagement -->
<g id="edge1" class="edge">
<title>EjecucionManagement&#45;&gt;CDManagement</title>
<path fill="none" stroke="black" stroke-width="2" d="M338.32,-154.76C358.54,-134.06 383.3,-108.72 403.46,-88.09"/>
<text text-anchor="middle" x="450.66" y="-118.4" font-family="sans-serif" font-size="12.00"> &#160;&#160;&#160;&#160;&#160;&#160;&#160;&#160;&#160;&#160;&#160;&#160;&#160;&#160;&#160;&#160;&#160;&#160;&#160;&#160;&#160;&#160;&#160;&#160;&#160;&#160;&#160;&#160;&#160;&#160;&#160;&#160;&#160;&#160;&#160;&#160;&#160;&#160;&#160;</text>
<polygon fill="white" stroke="transparent" points="397.46,-79.09 397.46,-96.09 410.46,-96.09 410.46,-79.09 397.46,-79.09"/>
<text text-anchor="start" x="399.46" y="-84.49" font-family="sans-serif" font-size="12.00">D</text>
<polygon fill="white" stroke="transparent" points="332.32,-145.76 332.32,-162.76 345.32,-162.76 345.32,-145.76 332.32,-145.76"/>
<text text-anchor="start" x="334.32" y="-151.16" font-family="sans-serif" font-size="12.00">U</text>
</g>
<!-- FacilitacionService -->
<g id="node4" class="node">
<title>FacilitacionService</title>
<polygon fill="none" stroke="black" stroke-width="2" points="420.15,-347.27 418.93,-350.12 417.39,-352.93 415.53,-355.69 413.36,-358.4 410.89,-361.03 408.11,-363.58 405.04,-366.03 401.69,-368.39 398.07,-370.63 394.19,-372.76 390.06,-374.76 385.68,-376.63 381.08,-378.36 376.27,-379.94 371.25,-381.38 366.05,-382.67 360.67,-383.8 355.14,-384.77 349.46,-385.59 343.65,-386.25 337.73,-386.75 331.71,-387.1 325.61,-387.3 319.44,-387.34 313.22,-387.24 306.97,-386.99 300.71,-386.6 294.44,-386.08 288.19,-385.43 281.97,-384.66 275.8,-383.77 269.69,-382.77 263.67,-381.67 257.74,-380.47 251.93,-379.18 246.24,-377.8 240.69,-376.35 235.31,-374.83 230.09,-373.25 225.06,-371.6 220.23,-369.91 215.61,-368.17 211.21,-366.39 207.05,-364.58 203.14,-362.74 199.49,-360.87 196.1,-358.98 193,-357.08 190.18,-355.16 187.66,-353.23 185.44,-351.3 183.52,-349.36 181.93,-347.42 180.65,-345.48 179.7,-343.54 179.07,-341.61 178.78,-339.68 178.82,-337.75 179.19,-335.84 179.89,-333.93 180.92,-332.04 182.28,-330.15 183.97,-328.28 185.97,-326.43 188.3,-324.59 190.94,-322.76 193.88,-320.96 197.12,-319.18 200.64,-317.42 204.45,-315.69 208.52,-313.99 212.86,-312.33 217.44,-310.7 222.25,-309.12 227.29,-307.58 232.53,-306.09 237.96,-304.65 243.58,-303.28 249.35,-301.98 255.27,-300.74 261.32,-299.58 267.48,-298.51 273.73,-297.53 280.06,-296.64 286.45,-295.85 292.88,-295.17 299.33,-294.6 305.78,-294.15 312.22,-293.82 318.63,-293.62 324.98,-293.55 331.27,-293.62 337.46,-293.84 343.55,-294.19 349.52,-294.69 355.35,-295.34 361.02,-296.14 366.52,-297.08 371.83,-298.18 376.94,-299.43 381.83,-300.82 386.49,-302.35 390.9,-304.03 395.06,-305.84 398.95,-307.79 402.57,-309.86 405.89,-312.05 408.92,-314.35 411.65,-316.76 414.06,-319.26 416.15,-321.85 417.92,-324.51 419.37,-327.24 420.48,-330.03 421.26,-332.86 421.71,-335.72 421.82,-338.6 421.59,-341.5 421.04,-344.39 420.15,-347.27"/>
<text text-anchor="middle" x="300.16" y="-336.07" font-family="sans-serif" font-size="16.00">FacilitacionService</text>
</g>
<!-- FacilitacionService&#45;&gt;EjecucionManagement -->
<g id="edge3" class="edge">
<title>FacilitacionService&#45;&gt;EjecucionManagement</title>
<path fill="none" stroke="black" stroke-width="2" d="M300.16,-294.39C300.16,-278.23 300.16,-259.92 300.16,-243.49"/>
<text text-anchor="middle" x="375.66" y="-265.04" font-family="sans-serif" font-size="12.00"> &#160;&#160;&#160;&#160;&#160;&#160;&#160;&#160;&#160;&#160;&#160;&#160;&#160;&#160;&#160;&#160;&#160;&#160;&#160;&#160;&#160;&#160;&#160;&#160;&#160;&#160;&#160;&#160;&#160;&#160;&#160;&#160;&#160;&#160;&#160;&#160;&#160;&#160;&#160;</text>
<polygon fill="white" stroke="transparent" points="294.16,-234.49 294.16,-251.49 307.16,-251.49 307.16,-234.49 294.16,-234.49"/>
<text text-anchor="start" x="296.16" y="-239.89" font-family="sans-serif" font-size="12.00">D</text>
<polygon fill="white" stroke="transparent" points="294.16,-285.39 294.16,-302.39 307.16,-302.39 307.16,-285.39 294.16,-285.39"/>
<text text-anchor="start" x="296.16" y="-290.79" font-family="sans-serif" font-size="12.00">U</text>
</g>
<!-- InboundManagement -->
<g id="node5" class="node">
<title>InboundManagement</title>
<polygon fill="none" stroke="black" stroke-width="2" points="384.4,-764.79 384.91,-767.67 385.03,-770.54 384.76,-773.38 384.11,-776.19 383.07,-778.94 381.64,-781.65 379.83,-784.28 377.64,-786.83 375.08,-789.3 372.15,-791.67 368.86,-793.94 365.21,-796.1 361.22,-798.14 356.9,-800.05 352.26,-801.83 347.31,-803.48 342.07,-804.99 336.55,-806.36 330.77,-807.59 324.74,-808.68 318.48,-809.62 312.02,-810.41 305.36,-811.06 298.53,-811.57 291.55,-811.93 284.44,-812.16 277.22,-812.26 269.91,-812.22 262.53,-812.06 255.11,-811.77 247.67,-811.37 240.24,-810.85 232.82,-810.23 225.44,-809.5 218.14,-808.68 210.92,-807.76 203.8,-806.76 196.82,-805.68 189.99,-804.52 183.32,-803.3 176.85,-802 170.58,-800.65 164.53,-799.24 158.72,-797.79 153.17,-796.28 147.9,-794.73 142.9,-793.14 138.21,-791.51 133.82,-789.85 129.76,-788.15 126.03,-786.43 122.65,-784.68 119.61,-782.9 116.92,-781.1 114.6,-779.28 112.65,-777.43 111.06,-775.57 109.85,-773.69 109.01,-771.79 108.55,-769.87 108.46,-767.94 108.75,-765.99 109.4,-764.04 110.43,-762.07 111.81,-760.1 113.56,-758.11 115.65,-756.13 118.09,-754.14 120.87,-752.16 123.98,-750.18 127.4,-748.21 131.14,-746.26 135.17,-744.32 139.49,-742.41 144.08,-740.53 148.94,-738.68 154.05,-736.86 159.4,-735.1 164.97,-733.39 170.75,-731.73 176.72,-730.15 182.87,-728.63 189.18,-727.2 195.64,-725.85 202.23,-724.6 208.94,-723.45 215.74,-722.4 222.62,-721.48 229.57,-720.67 236.56,-719.99 243.59,-719.45 250.62,-719.05 257.65,-718.78 264.65,-718.67 271.61,-718.71 278.52,-718.91 285.34,-719.26 292.07,-719.77 298.69,-720.44 305.18,-721.28 311.53,-722.27 317.71,-723.42 323.71,-724.72 329.52,-726.18 335.11,-727.79 340.48,-729.54 345.61,-731.43 350.47,-733.46 355.07,-735.6 359.38,-737.87 363.4,-740.24 367.1,-742.71 370.49,-745.27 373.54,-747.91 376.25,-750.62 378.61,-753.38 380.62,-756.2 382.25,-759.04 383.52,-761.91 384.4,-764.79"/>
<text text-anchor="middle" x="246.16" y="-762.81" font-family="sans-serif" font-size="16.00">InboundManagement</text>
</g>
<!-- InventarioService -->
<g id="node6" class="node">
<title>InventarioService</title>
<polygon fill="none" stroke="black" stroke-width="2" points="221.46,-668.58 213.98,-667.94 206.63,-667.19 199.42,-666.33 192.4,-665.36 185.59,-664.28 179.01,-663.1 172.7,-661.82 166.68,-660.45 160.97,-658.99 155.59,-657.44 150.56,-655.81 145.9,-654.1 141.62,-652.32 137.74,-650.47 134.27,-648.56 131.21,-646.6 128.57,-644.58 126.35,-642.51 124.56,-640.41 123.2,-638.26 122.26,-636.09 121.75,-633.9 121.64,-631.68 121.94,-629.45 122.63,-627.21 123.71,-624.98 125.16,-622.74 126.96,-620.52 129.1,-618.31 131.57,-616.12 134.34,-613.95 137.4,-611.82 140.74,-609.72 144.32,-607.66 148.13,-605.66 152.16,-603.7 156.39,-601.8 160.78,-599.96 165.34,-598.19 170.04,-596.49 174.85,-594.86 179.78,-593.31 184.79,-591.85 189.88,-590.48 195.03,-589.19 200.23,-588.01 205.47,-586.92 210.73,-585.93 216,-585.04 221.29,-584.27 226.57,-583.6 231.84,-583.05 237.09,-582.6 242.32,-582.28 247.53,-582.07 252.7,-581.98 257.84,-582.01 262.94,-582.15 267.99,-582.42 273,-582.81 277.96,-583.31 282.86,-583.93 287.71,-584.67 292.5,-585.53 297.23,-586.49 301.89,-587.57 306.47,-588.76 310.98,-590.05 315.4,-591.44 319.73,-592.94 323.97,-594.53 328.09,-596.21 332.1,-597.97 335.98,-599.82 339.73,-601.74 343.32,-603.74 346.76,-605.8 350.02,-607.92 353.1,-610.1 355.98,-612.32 358.64,-614.58 361.07,-616.88 363.26,-619.2 365.2,-621.55 366.86,-623.91 368.23,-626.28 369.31,-628.65 370.07,-631.01 370.5,-633.35 370.6,-635.68 370.35,-637.98 369.74,-640.24 368.76,-642.46 367.41,-644.63 365.68,-646.75 363.57,-648.81 361.07,-650.8 358.19,-652.72 354.92,-654.56 351.27,-656.32 347.25,-657.98 342.86,-659.56 338.12,-661.03 333.03,-662.41 327.61,-663.68 321.87,-664.84 315.84,-665.89 309.53,-666.82 302.97,-667.64 296.17,-668.33 289.17,-668.91 281.98,-669.36 274.64,-669.69 267.17,-669.9 259.61,-669.99 251.99,-669.95 244.33,-669.79 236.67,-669.5 229.04,-669.1 221.46,-668.58"/>
<text text-anchor="middle" x="249.16" y="-622" font-family="sans-serif" font-size="16.00">InventarioService</text>
</g>
<!-- InboundManagement&#45;&gt;InventarioService -->
<g id="edge4" class="edge">
<title>InboundManagement&#45;&gt;InventarioService</title>
<path fill="none" stroke="black" stroke-width="2" d="M247.17,-719C247.51,-703.25 247.88,-685.73 248.22,-670.23"/>
<text text-anchor="middle" x="323.66" y="-691.29" font-family="sans-serif" font-size="12.00"> &#160;&#160;&#160;&#160;&#160;&#160;&#160;&#160;&#160;&#160;&#160;&#160;&#160;&#160;&#160;&#160;&#160;&#160;&#160;&#160;&#160;&#160;&#160;&#160;&#160;&#160;&#160;&#160;&#160;&#160;&#160;&#160;&#160;&#160;&#160;&#160;&#160;&#160;&#160;</text>
<polygon fill="white" stroke="transparent" points="242.22,-661.23 242.22,-678.23 255.22,-678.23 255.22,-661.23 242.22,-661.23"/>
<text text-anchor="start" x="244.22" y="-666.63" font-family="sans-serif" font-size="12.00">D</text>
<polygon fill="white" stroke="transparent" points="241.17,-710 241.17,-727 254.17,-727 254.17,-710 241.17,-710"/>
<text text-anchor="start" x="243.17" y="-715.4" font-family="sans-serif" font-size="12.00">U</text>
</g>
<!-- OutboundManagement -->
<g id="node7" class="node">
<title>OutboundManagement</title>
<polygon fill="none" stroke="black" stroke-width="2" points="114.5,-469.7 117.56,-466.99 120.97,-464.34 124.73,-461.76 128.82,-459.26 133.23,-456.85 137.94,-454.53 142.95,-452.33 148.22,-450.24 153.75,-448.27 159.53,-446.44 165.52,-444.75 171.72,-443.2 178.11,-441.8 184.67,-440.55 191.37,-439.46 198.22,-438.53 205.18,-437.76 212.23,-437.15 219.37,-436.71 226.56,-436.43 233.8,-436.31 241.07,-436.34 248.34,-436.53 255.61,-436.88 262.85,-437.37 270.05,-438 277.18,-438.77 284.25,-439.66 291.21,-440.69 298.07,-441.83 304.81,-443.08 311.41,-444.44 317.85,-445.89 324.13,-447.43 330.22,-449.06 336.11,-450.75 341.79,-452.51 347.25,-454.34 352.47,-456.21 357.44,-458.12 362.15,-460.08 366.58,-462.06 370.72,-464.07 374.57,-466.1 378.11,-468.15 381.34,-470.2 384.23,-472.25 386.79,-474.3 389.01,-476.35 390.87,-478.39 392.37,-480.41 393.51,-482.42 394.28,-484.42 394.67,-486.39 394.68,-488.34 394.31,-490.27 393.56,-492.17 392.41,-494.04 390.89,-495.89 388.98,-497.7 386.68,-499.49 384.01,-501.24 380.96,-502.96 377.55,-504.65 373.77,-506.3 369.63,-507.91 365.15,-509.49 360.33,-511.03 355.19,-512.52 349.73,-513.97 343.98,-515.37 337.94,-516.73 331.63,-518.03 325.08,-519.28 318.29,-520.46 311.28,-521.59 304.08,-522.65 296.71,-523.64 289.19,-524.55 281.53,-525.39 273.77,-526.14 265.93,-526.8 258.02,-527.37 250.08,-527.85 242.13,-528.22 234.19,-528.48 226.3,-528.63 218.46,-528.67 210.71,-528.59 203.08,-528.38 195.58,-528.05 188.24,-527.59 181.09,-527 174.14,-526.27 167.42,-525.41 160.95,-524.41 154.74,-523.28 148.83,-522.01 143.22,-520.61 137.93,-519.08 132.99,-517.41 128.39,-515.62 124.17,-513.71 120.32,-511.68 116.86,-509.54 113.8,-507.3 111.14,-504.95 108.9,-502.52 107.07,-500 105.67,-497.41 104.69,-494.75 104.13,-492.04 103.99,-489.29 104.27,-486.5 104.97,-483.69 106.08,-480.87 107.6,-478.04 109.51,-475.23 111.82,-472.45 114.5,-469.7"/>
<text text-anchor="middle" x="251.16" y="-480.6" font-family="sans-serif" font-size="16.00">OutboundManagement</text>
</g>
<!-- InventarioService&#45;&gt;OutboundManagement -->
<g id="edge5" class="edge">
<title>InventarioService&#45;&gt;OutboundManagement</title>
<path fill="none" stroke="black" stroke-width="2" d="M249.77,-581.84C250.02,-564.72 250.3,-545.06 250.55,-527.98"/>
<text text-anchor="middle" x="326.66" y="-554.1" font-family="sans-serif" font-size="12.00"> &#160;&#160;&#160;&#160;&#160;&#160;&#160;&#160;&#160;&#160;&#160;&#160;&#160;&#160;&#160;&#160;&#160;&#160;&#160;&#160;&#160;&#160;&#160;&#160;&#160;&#160;&#160;&#160;&#160;&#160;&#160;&#160;&#160;&#160;&#160;&#160;&#160;&#160;&#160;</text>
<polygon fill="white" stroke="transparent" points="244.55,-518.98 244.55,-535.98 257.55,-535.98 257.55,-518.98 244.55,-518.98"/>
<text text-anchor="start" x="246.55" y="-524.38" font-family="sans-serif" font-size="12.00">D</text>
<polygon fill="white" stroke="transparent" points="243.77,-572.84 243.77,-589.84 256.77,-589.84 256.77,-572.84 243.77,-572.84"/>
<text text-anchor="start" x="245.77" y="-578.24" font-family="sans-serif" font-size="12.00">U</text>
</g>
<!-- OutboundManagement&#45;&gt;FacilitacionService -->
<g id="edge6" class="edge">
<title>OutboundManagement&#45;&gt;FacilitacionService</title>
<path fill="none" stroke="black" stroke-width="2" d="M224.78,-436.34C222.03,-425.88 221.66,-414.97 226.16,-405.11 230.75,-395.04 237.78,-385.95 245.71,-377.98"/>
<text text-anchor="middle" x="301.66" y="-408.51" font-family="sans-serif" font-size="12.00"> &#160;&#160;&#160;&#160;&#160;&#160;&#160;&#160;&#160;&#160;&#160;&#160;&#160;&#160;&#160;&#160;&#160;&#160;&#160;&#160;&#160;&#160;&#160;&#160;&#160;&#160;&#160;&#160;&#160;&#160;&#160;&#160;&#160;&#160;&#160;&#160;&#160;&#160;&#160;</text>
<polygon fill="white" stroke="transparent" points="239.71,-368.98 239.71,-385.98 252.71,-385.98 252.71,-368.98 239.71,-368.98"/>
<text text-anchor="start" x="241.71" y="-374.38" font-family="sans-serif" font-size="12.00">D</text>
<polygon fill="white" stroke="transparent" points="218.78,-427.34 218.78,-444.34 231.78,-444.34 231.78,-427.34 218.78,-427.34"/>
<text text-anchor="start" x="220.78" y="-432.74" font-family="sans-serif" font-size="12.00">U</text>
</g>
<!-- OrdenCore -->
<g id="node8" class="node">
<title>OrdenCore</title>
<polygon fill="none" stroke="black" stroke-width="2" points="32.61,-880.41 36.53,-878.37 40.59,-876.44 44.78,-874.61 49.07,-872.89 53.46,-871.3 57.92,-869.84 62.44,-868.51 67.01,-867.32 71.6,-866.29 76.21,-865.4 80.82,-864.66 85.42,-864.09 89.98,-863.67 94.5,-863.42 98.97,-863.32 103.38,-863.39 107.71,-863.62 111.95,-864.01 116.09,-864.56 120.13,-865.26 124.05,-866.11 127.85,-867.11 131.53,-868.25 135.07,-869.52 138.47,-870.92 141.73,-872.45 144.84,-874.09 147.8,-875.84 150.6,-877.69 153.25,-879.63 155.73,-881.65 158.06,-883.75 160.22,-885.92 162.21,-888.14 164.04,-890.41 165.7,-892.73 167.2,-895.07 168.52,-897.44 169.68,-899.82 170.66,-902.21 171.48,-904.6 172.12,-906.98 172.59,-909.35 172.89,-911.69 173.02,-914 172.97,-916.28 172.74,-918.52 172.34,-920.71 171.76,-922.85 171.01,-924.94 170.07,-926.97 168.96,-928.93 167.66,-930.83 166.18,-932.66 164.52,-934.43 162.68,-936.12 160.66,-937.73 158.46,-939.27 156.08,-940.74 153.52,-942.12 150.79,-943.43 147.88,-944.66 144.81,-945.8 141.56,-946.87 138.16,-947.86 134.6,-948.77 130.89,-949.6 127.04,-950.34 123.05,-951.01 118.93,-951.59 114.7,-952.1 110.36,-952.52 105.92,-952.86 101.39,-953.11 96.8,-953.28 92.14,-953.37 87.44,-953.37 82.71,-953.28 77.96,-953.11 73.2,-952.85 68.47,-952.5 63.76,-952.05 59.1,-951.52 54.51,-950.89 50,-950.17 45.59,-949.35 41.29,-948.44 37.13,-947.44 33.11,-946.33 29.26,-945.14 25.58,-943.84 22.1,-942.45 18.84,-940.97 15.79,-939.39 12.98,-937.72 10.41,-935.96 8.11,-934.12 6.07,-932.19 4.31,-930.18 2.83,-928.09 1.64,-925.93 0.74,-923.71 0.14,-921.42 -0.16,-919.08 -0.16,-916.69 0.14,-914.25 0.74,-911.79 1.64,-909.29 2.83,-906.78 4.3,-904.25 6.04,-901.72 8.06,-899.2 10.34,-896.7 12.87,-894.22 15.64,-891.78 18.63,-889.38 21.84,-887.03 25.25,-884.75 28.84,-882.54 32.61,-880.41"/>
<text text-anchor="middle" x="92.16" y="-908.02" font-family="sans-serif" font-size="16.00">OrdenCore</text>
</g>
<!-- OrdenCore&#45;&gt;EjecucionManagement -->
<g id="edge8" class="edge">
<title>OrdenCore&#45;&gt;EjecucionManagement</title>
<path fill="none" stroke="black" stroke-width="2" d="M84.3,-864.21C80.25,-836.27 76.16,-800.01 76.16,-767.61 76.16,-767.61 76.16,-767.61 76.16,-338.87 76.16,-279.46 132.82,-243.63 189.14,-222.68"/>
<text text-anchor="middle" x="151.66" y="-554.1" font-family="sans-serif" font-size="12.00"> &#160;&#160;&#160;&#160;&#160;&#160;&#160;&#160;&#160;&#160;&#160;&#160;&#160;&#160;&#160;&#160;&#160;&#160;&#160;&#160;&#160;&#160;&#160;&#160;&#160;&#160;&#160;&#160;&#160;&#160;&#160;&#160;&#160;&#160;&#160;&#160;&#160;&#160;&#160;</text>
<polygon fill="white" stroke="transparent" points="168.14,-212.68 168.14,-231.68 183.14,-231.68 183.14,-212.68 168.14,-212.68"/>
<polyline fill="none" stroke="black" points="183.14,-212.68 183.14,-231.68 "/>
<text text-anchor="start" x="171.14" y="-219.08" font-family="sans-serif" font-size="12.00">D</text>
<polygon fill="white" stroke="transparent" points="183.14,-212.68 183.14,-231.68 211.14,-231.68 211.14,-212.68 183.14,-212.68"/>
<polygon fill="none" stroke="black" points="183.14,-212.68 183.14,-231.68 211.14,-231.68 211.14,-212.68 183.14,-212.68"/>
<text text-anchor="start" x="186.14" y="-219.08" font-family="sans-serif" font-size="12.00">ACL</text>
<polygon fill="white" stroke="transparent" points="51.3,-854.21 51.3,-873.21 66.3,-873.21 66.3,-854.21 51.3,-854.21"/>
<polyline fill="none" stroke="black" points="66.3,-854.21 66.3,-873.21 "/>
<text text-anchor="start" x="54.3" y="-860.61" font-family="sans-serif" font-size="12.00">U</text>
<polygon fill="white" stroke="transparent" points="66.3,-854.21 66.3,-873.21 117.3,-873.21 117.3,-854.21 66.3,-854.21"/>
<polygon fill="none" stroke="black" points="66.3,-854.21 66.3,-873.21 117.3,-873.21 117.3,-854.21 66.3,-854.21"/>
<text text-anchor="start" x="69.3" y="-860.61" font-family="sans-serif" font-size="12.00">OHS, PL</text>
</g>
<!-- OrdenCore&#45;&gt;InboundManagement -->
<g id="edge7" class="edge">
<title>OrdenCore&#45;&gt;InboundManagement</title>
<path fill="none" stroke="black" stroke-width="2" d="M136.29,-869.78C157.53,-850.03 182.88,-826.45 203.88,-806.93"/>
<text text-anchor="middle" x="249.66" y="-835.72" font-family="sans-serif" font-size="12.00"> &#160;&#160;&#160;&#160;&#160;&#160;&#160;&#160;&#160;&#160;&#160;&#160;&#160;&#160;&#160;&#160;&#160;&#160;&#160;&#160;&#160;&#160;&#160;&#160;&#160;&#160;&#160;&#160;&#160;&#160;&#160;&#160;&#160;&#160;&#160;&#160;&#160;&#160;&#160;</text>
<polygon fill="white" stroke="transparent" points="197.88,-797.93 197.88,-814.93 210.88,-814.93 210.88,-797.93 197.88,-797.93"/>
<text text-anchor="start" x="199.88" y="-803.33" font-family="sans-serif" font-size="12.00">D</text>
<polygon fill="white" stroke="transparent" points="103.29,-859.78 103.29,-878.78 118.29,-878.78 118.29,-859.78 103.29,-859.78"/>
<polyline fill="none" stroke="black" points="118.29,-859.78 118.29,-878.78 "/>
<text text-anchor="start" x="106.29" y="-866.18" font-family="sans-serif" font-size="12.00">U</text>
<polygon fill="white" stroke="transparent" points="118.29,-859.78 118.29,-878.78 169.29,-878.78 169.29,-859.78 118.29,-859.78"/>
<polygon fill="none" stroke="black" points="118.29,-859.78 118.29,-878.78 169.29,-878.78 169.29,-859.78 118.29,-859.78"/>
<text text-anchor="start" x="121.29" y="-866.18" font-family="sans-serif" font-size="12.00">OHS, PL</text>
</g>
<!-- PedidoCore -->
<g id="node9" class="node">
<title>PedidoCore</title>
<polygon fill="none" stroke="black" stroke-width="2" points="493.96,-521.75 489.01,-520.28 484.23,-518.72 479.62,-517.07 475.21,-515.34 471.02,-513.53 467.06,-511.65 463.35,-509.71 459.9,-507.72 456.73,-505.67 453.85,-503.58 451.27,-501.46 449,-499.3 447.05,-497.12 445.42,-494.92 444.12,-492.71 443.16,-490.49 442.52,-488.28 442.22,-486.06 442.24,-483.86 442.6,-481.68 443.27,-479.51 444.26,-477.37 445.55,-475.26 447.14,-473.18 449.02,-471.14 451.17,-469.14 453.59,-467.19 456.25,-465.29 459.14,-463.45 462.26,-461.65 465.57,-459.92 469.08,-458.26 472.75,-456.65 476.58,-455.12 480.54,-453.66 484.62,-452.27 488.81,-450.95 493.08,-449.72 497.43,-448.57 501.83,-447.5 506.27,-446.51 510.74,-445.62 515.22,-444.81 519.7,-444.09 524.17,-443.47 528.61,-442.95 533.02,-442.52 537.38,-442.19 541.69,-441.96 545.94,-441.84 550.12,-441.81 554.22,-441.9 558.25,-442.08 562.18,-442.38 566.02,-442.78 569.77,-443.29 573.42,-443.91 576.96,-444.64 580.4,-445.48 583.74,-446.42 586.96,-447.47 590.08,-448.63 593.08,-449.89 595.97,-451.25 598.75,-452.71 601.4,-454.27 603.94,-455.93 606.36,-457.67 608.65,-459.5 610.81,-461.42 612.85,-463.41 614.76,-465.48 616.52,-467.62 618.15,-469.81 619.63,-472.07 620.97,-474.38 622.14,-476.73 623.16,-479.11 624.01,-481.53 624.69,-483.96 625.19,-486.42 625.51,-488.87 625.63,-491.33 625.56,-493.78 625.29,-496.21 624.8,-498.61 624.11,-500.97 623.19,-503.3 622.05,-505.57 620.68,-507.79 619.08,-509.94 617.25,-512.01 615.18,-514 612.87,-515.9 610.33,-517.71 607.55,-519.42 604.54,-521.02 601.3,-522.5 597.83,-523.87 594.14,-525.11 590.24,-526.23 586.14,-527.21 581.84,-528.06 577.36,-528.78 572.71,-529.36 567.9,-529.79 562.95,-530.09 557.87,-530.24 552.68,-530.26 547.4,-530.14 542.05,-529.87 536.64,-529.47 531.2,-528.94 525.75,-528.27 520.3,-527.48 514.89,-526.56 509.52,-525.53 504.23,-524.38 499.04,-523.11 493.96,-521.75"/>
<text text-anchor="middle" x="540.16" y="-480.6" font-family="sans-serif" font-size="16.00">PedidoCore</text>
</g>
<!-- PedidoCore&#45;&gt;EjecucionManagement -->
<g id="edge9" class="edge">
<title>PedidoCore&#45;&gt;EjecucionManagement</title>
<path fill="none" stroke="black" stroke-width="2" d="M552.63,-441.84C554.46,-429.82 554.71,-416.79 551.16,-405.11 528.86,-331.69 514.27,-310.55 455.16,-261.64 438.38,-247.75 418.24,-236.37 398.11,-227.22"/>
<text text-anchor="middle" x="620.66" y="-336.77" font-family="sans-serif" font-size="12.00"> &#160;&#160;&#160;&#160;&#160;&#160;&#160;&#160;&#160;&#160;&#160;&#160;&#160;&#160;&#160;&#160;&#160;&#160;&#160;&#160;&#160;&#160;&#160;&#160;&#160;&#160;&#160;&#160;&#160;&#160;&#160;&#160;&#160;&#160;&#160;&#160;&#160;&#160;&#160;</text>
<polygon fill="white" stroke="transparent" points="377.11,-217.22 377.11,-236.22 392.11,-236.22 392.11,-217.22 377.11,-217.22"/>
<polyline fill="none" stroke="black" points="392.11,-217.22 392.11,-236.22 "/>
<text text-anchor="start" x="380.11" y="-223.62" font-family="sans-serif" font-size="12.00">D</text>
<polygon fill="white" stroke="transparent" points="392.11,-217.22 392.11,-236.22 420.11,-236.22 420.11,-217.22 392.11,-217.22"/>
<polygon fill="none" stroke="black" points="392.11,-217.22 392.11,-236.22 420.11,-236.22 420.11,-217.22 392.11,-217.22"/>
<text text-anchor="start" x="395.11" y="-223.62" font-family="sans-serif" font-size="12.00">ACL</text>
<polygon fill="white" stroke="transparent" points="519.63,-431.84 519.63,-450.84 534.63,-450.84 534.63,-431.84 519.63,-431.84"/>
<polyline fill="none" stroke="black" points="534.63,-431.84 534.63,-450.84 "/>
<text text-anchor="start" x="522.63" y="-438.24" font-family="sans-serif" font-size="12.00">U</text>
<polygon fill="white" stroke="transparent" points="534.63,-431.84 534.63,-450.84 585.63,-450.84 585.63,-431.84 534.63,-431.84"/>
<polygon fill="none" stroke="black" points="534.63,-431.84 534.63,-450.84 585.63,-450.84 585.63,-431.84 534.63,-431.84"/>
<text text-anchor="start" x="537.63" y="-438.24" font-family="sans-serif" font-size="12.00">OHS, PL</text>
</g>
<!-- PedidoCore&#45;&gt;FacilitacionService -->
<g id="edge10" class="edge">
<title>PedidoCore&#45;&gt;FacilitacionService</title>
<path fill="none" stroke="black" stroke-width="2" d="M473.78,-456.07C449.96,-445.33 423.29,-432.19 400.16,-418.11 384.23,-408.41 367.86,-396.63 353.09,-385.23"/>
<text text-anchor="middle" x="475.66" y="-408.51" font-family="sans-serif" font-size="12.00"> &#160;&#160;&#160;&#160;&#160;&#160;&#160;&#160;&#160;&#160;&#160;&#160;&#160;&#160;&#160;&#160;&#160;&#160;&#160;&#160;&#160;&#160;&#160;&#160;&#160;&#160;&#160;&#160;&#160;&#160;&#160;&#160;&#160;&#160;&#160;&#160;&#160;&#160;&#160;</text>
<polygon fill="white" stroke="transparent" points="336.09,-375.23 336.09,-394.23 351.09,-394.23 351.09,-375.23 336.09,-375.23"/>
<polyline fill="none" stroke="black" points="351.09,-375.23 351.09,-394.23 "/>
<text text-anchor="start" x="339.09" y="-381.63" font-family="sans-serif" font-size="12.00">D</text>
<polygon fill="white" stroke="transparent" points="351.09,-375.23 351.09,-394.23 371.09,-394.23 371.09,-375.23 351.09,-375.23"/>
<polygon fill="none" stroke="black" points="351.09,-375.23 351.09,-394.23 371.09,-394.23 371.09,-375.23 351.09,-375.23"/>
<text text-anchor="start" x="354.09" y="-381.63" font-family="sans-serif" font-size="12.00">CF</text>
<polygon fill="white" stroke="transparent" points="440.78,-446.07 440.78,-465.07 455.78,-465.07 455.78,-446.07 440.78,-446.07"/>
<polyline fill="none" stroke="black" points="455.78,-446.07 455.78,-465.07 "/>
<text text-anchor="start" x="443.78" y="-452.47" font-family="sans-serif" font-size="12.00">U</text>
<polygon fill="white" stroke="transparent" points="455.78,-446.07 455.78,-465.07 506.78,-465.07 506.78,-446.07 455.78,-446.07"/>
<polygon fill="none" stroke="black" points="455.78,-446.07 455.78,-465.07 506.78,-465.07 506.78,-446.07 455.78,-446.07"/>
<text text-anchor="start" x="458.78" y="-452.47" font-family="sans-serif" font-size="12.00">OHS, PL</text>
</g>
</g>
</svg>
