<svg width="901px" height="1000px"
 viewBox="0.00 0.00 869.83 965.57" xmlns="http://www.w3.org/2000/svg" xmlns:xlink="http://www.w3.org/1999/xlink">
<g id="graph0" class="graph" transform="scale(1.0 1.0) rotate(0) translate(4 961.57)">
<title>ContextMapGraph</title>
<polygon fill="white" stroke="transparent" points="-4,4 -4,-961.57 865.83,-961.57 865.83,4 -4,4"/>
<!-- BodegaManagement -->
<g id="node1" class="node">
<title>BodegaManagement</title>
<polygon fill="none" stroke="black" stroke-width="2" points="238.95,-79.46 232.92,-81.53 226.67,-83.51 220.21,-85.38 213.59,-87.13 206.81,-88.77 199.9,-90.27 192.9,-91.64 185.81,-92.87 178.68,-93.95 171.51,-94.88 164.34,-95.66 157.18,-96.27 150.06,-96.73 142.99,-97.03 136,-97.16 129.11,-97.13 122.32,-96.94 115.67,-96.59 109.16,-96.08 102.8,-95.41 96.61,-94.6 90.61,-93.63 84.8,-92.53 79.19,-91.28 73.79,-89.91 68.61,-88.41 63.66,-86.8 58.94,-85.08 54.45,-83.25 50.21,-81.33 46.22,-79.33 42.47,-77.25 38.97,-75.1 35.73,-72.89 32.75,-70.63 30.03,-68.33 27.57,-66 25.37,-63.64 23.43,-61.26 21.76,-58.88 20.36,-56.5 19.23,-54.12 18.36,-51.76 17.77,-49.42 17.45,-47.1 17.41,-44.82 17.64,-42.58 18.15,-40.38 18.95,-38.23 20.02,-36.14 21.38,-34.1 23.02,-32.12 24.95,-30.21 27.16,-28.36 29.66,-26.58 32.45,-24.87 35.53,-23.24 38.89,-21.68 42.54,-20.19 46.47,-18.78 50.68,-17.45 55.16,-16.19 59.92,-15.01 64.93,-13.92 70.21,-12.9 75.73,-11.95 81.49,-11.09 87.48,-10.31 93.69,-9.61 100.1,-8.99 106.7,-8.44 113.47,-7.98 120.39,-7.61 127.46,-7.31 134.64,-7.1 141.93,-6.97 149.28,-6.93 156.7,-6.97 164.14,-7.1 171.59,-7.32 179.02,-7.63 186.4,-8.03 193.72,-8.52 200.94,-9.11 208.04,-9.79 214.99,-10.57 221.76,-11.44 228.33,-12.41 234.67,-13.48 240.77,-14.64 246.58,-15.91 252.1,-17.27 257.29,-18.72 262.14,-20.27 266.63,-21.92 270.74,-23.66 274.44,-25.48 277.74,-27.4 280.6,-29.39 283.03,-31.47 285,-33.62 286.52,-35.83 287.58,-38.12 288.17,-40.46 288.3,-42.85 287.95,-45.29 287.15,-47.77 285.88,-50.27 284.16,-52.8 281.99,-55.34 279.39,-57.89 276.36,-60.43 272.93,-62.96 269.1,-65.46 264.9,-67.93 260.34,-70.36 255.45,-72.74 250.24,-75.05 244.73,-77.3 238.95,-79.46"/>
<text text-anchor="middle" x="144.1" y="-44.75" font-family="sans-serif" font-size="16.00">BodegaManagement</text>
</g>
<!-- BodegaTercerosService -->
<g id="node2" class="node">
<title>BodegaTercerosService</title>
<polygon fill="none" stroke="black" stroke-width="2" points="599.66,-48.28 599.86,-51.15 599.65,-54 599.04,-56.82 598.03,-59.61 596.6,-62.34 594.78,-65.01 592.56,-67.61 589.95,-70.13 586.95,-72.55 583.57,-74.88 579.82,-77.1 575.71,-79.2 571.25,-81.18 566.46,-83.04 561.34,-84.76 555.91,-86.35 550.18,-87.79 544.18,-89.09 537.92,-90.25 531.41,-91.26 524.68,-92.13 517.74,-92.84 510.62,-93.42 503.33,-93.85 495.89,-94.13 488.34,-94.28 480.69,-94.3 472.95,-94.18 465.17,-93.94 457.35,-93.57 449.52,-93.08 441.7,-92.49 433.92,-91.78 426.2,-90.98 418.56,-90.08 411.02,-89.09 403.61,-88.02 396.34,-86.86 389.24,-85.64 382.33,-84.34 375.62,-82.99 369.14,-81.57 362.9,-80.11 356.93,-78.59 351.23,-77.03 345.82,-75.43 340.72,-73.79 335.94,-72.12 331.49,-70.42 327.39,-68.69 323.64,-66.94 320.25,-65.16 317.24,-63.36 314.61,-61.54 312.36,-59.7 310.51,-57.84 309.05,-55.97 307.98,-54.08 307.32,-52.18 307.05,-50.27 307.18,-48.35 307.71,-46.42 308.63,-44.48 309.94,-42.54 311.64,-40.59 313.71,-38.64 316.16,-36.69 318.97,-34.74 322.14,-32.8 325.66,-30.87 329.51,-28.95 333.69,-27.04 338.19,-25.16 342.98,-23.31 348.07,-21.49 353.43,-19.7 359.04,-17.95 364.91,-16.26 371,-14.62 377.31,-13.04 383.82,-11.52 390.5,-10.09 397.35,-8.73 404.34,-7.46 411.47,-6.29 418.7,-5.22 426.02,-4.26 433.42,-3.41 440.86,-2.69 448.34,-2.09 455.84,-1.63 463.33,-1.3 470.8,-1.12 478.23,-1.09 485.6,-1.2 492.88,-1.47 500.07,-1.9 507.13,-2.48 514.06,-3.23 520.84,-4.13 527.44,-5.18 533.85,-6.39 540.05,-7.76 546.03,-9.28 551.77,-10.94 557.25,-12.74 562.45,-14.68 567.37,-16.74 571.99,-18.93 576.29,-21.23 580.27,-23.63 583.9,-26.13 587.19,-28.71 590.12,-31.37 592.67,-34.09 594.85,-36.87 596.64,-39.69 598.05,-42.54 599.05,-45.41 599.66,-48.28"/>
<text text-anchor="middle" x="453.1" y="-44.75" font-family="sans-serif" font-size="16.00">BodegaTercerosService</text>
</g>
<!-- CDManagement -->
<g id="node3" class="node">
<title>CDManagement</title>
<polygon fill="none" stroke="black" stroke-width="2" points="779.15,-7.31 785.96,-8.28 792.61,-9.37 799.1,-10.55 805.37,-11.84 811.42,-13.22 817.22,-14.69 822.73,-16.25 827.95,-17.89 832.85,-19.61 837.41,-21.39 841.62,-23.24 845.46,-25.15 848.92,-27.12 851.99,-29.13 854.66,-31.19 856.92,-33.28 858.77,-35.41 860.21,-37.56 861.24,-39.74 861.86,-41.93 862.07,-44.13 861.88,-46.33 861.3,-48.54 860.34,-50.74 859,-52.93 857.31,-55.11 855.27,-57.26 852.9,-59.39 850.21,-61.49 847.23,-63.55 843.97,-65.58 840.45,-67.56 836.69,-69.49 832.7,-71.37 828.52,-73.19 824.14,-74.95 819.61,-76.64 814.93,-78.27 810.12,-79.82 805.2,-81.3 800.19,-82.69 795.11,-84 789.96,-85.23 784.78,-86.36 779.56,-87.4 774.33,-88.34 769.09,-89.18 763.86,-89.93 758.65,-90.56 753.47,-91.09 748.32,-91.51 743.21,-91.82 738.16,-92.02 733.16,-92.11 728.22,-92.07 723.35,-91.93 718.55,-91.67 713.82,-91.29 709.17,-90.79 704.6,-90.18 700.11,-89.45 695.71,-88.61 691.39,-87.65 687.17,-86.58 683.04,-85.41 679.01,-84.12 675.08,-82.73 671.25,-81.24 667.54,-79.65 663.94,-77.97 660.47,-76.2 657.12,-74.34 653.91,-72.4 650.84,-70.39 647.93,-68.31 645.17,-66.16 642.58,-63.96 640.18,-61.7 637.96,-59.4 635.95,-57.06 634.15,-54.69 632.58,-52.29 631.24,-49.88 630.15,-47.46 629.32,-45.04 628.76,-42.63 628.48,-40.22 628.49,-37.84 628.8,-35.49 629.42,-33.18 630.36,-30.91 631.63,-28.69 633.22,-26.52 635.15,-24.43 637.42,-22.4 640.03,-20.45 642.98,-18.59 646.27,-16.81 649.89,-15.13 653.84,-13.56 658.12,-12.08 662.71,-10.72 667.61,-9.47 672.79,-8.33 678.26,-7.32 683.98,-6.43 689.95,-5.67 696.15,-5.03 702.54,-4.52 709.12,-4.14 715.86,-3.88 722.72,-3.76 729.7,-3.77 736.75,-3.9 743.86,-4.17 750.98,-4.55 758.11,-5.06 765.19,-5.69 772.22,-6.44 779.15,-7.31"/>
<text text-anchor="middle" x="740.1" y="-44.75" font-family="sans-serif" font-size="16.00">CDManagement</text>
</g>
<!-- EjecucionManagement -->
<g id="node4" class="node">
<title>EjecucionManagement</title>
<polygon fill="none" stroke="black" stroke-width="2" points="356.75,-162.09 363.56,-160.13 370.59,-158.27 377.82,-156.53 385.22,-154.9 392.76,-153.39 400.42,-152.01 408.16,-150.77 415.95,-149.67 423.78,-148.72 431.62,-147.92 439.43,-147.27 447.21,-146.78 454.92,-146.44 462.53,-146.27 470.05,-146.26 477.43,-146.41 484.66,-146.71 491.73,-147.18 498.62,-147.8 505.32,-148.57 511.81,-149.49 518.07,-150.55 524.11,-151.75 529.91,-153.08 535.46,-154.54 540.75,-156.11 545.78,-157.81 550.55,-159.6 555.04,-161.49 559.26,-163.47 563.2,-165.54 566.86,-167.67 570.24,-169.87 573.33,-172.12 576.15,-174.41 578.67,-176.75 580.91,-179.11 582.87,-181.49 584.54,-183.89 585.92,-186.29 587.02,-188.68 587.83,-191.06 588.35,-193.43 588.58,-195.77 588.53,-198.07 588.19,-200.34 587.56,-202.57 586.64,-204.74 585.42,-206.87 583.91,-208.93 582.11,-210.94 580.02,-212.88 577.63,-214.75 574.94,-216.55 571.96,-218.27 568.68,-219.92 565.1,-221.49 561.23,-222.99 557.07,-224.4 552.62,-225.74 547.89,-226.99 542.87,-228.16 537.58,-229.25 532.02,-230.26 526.19,-231.18 520.12,-232.02 513.8,-232.78 507.25,-233.46 500.48,-234.05 493.51,-234.56 486.34,-234.98 479.01,-235.32 471.53,-235.58 463.91,-235.75 456.17,-235.84 448.35,-235.84 440.46,-235.76 432.53,-235.59 424.58,-235.33 416.63,-234.98 408.73,-234.55 400.88,-234.02 393.13,-233.41 385.49,-232.7 378,-231.9 370.69,-231.01 363.59,-230.02 356.71,-228.95 350.1,-227.78 343.77,-226.51 337.75,-225.16 332.07,-223.71 326.76,-222.17 321.82,-220.55 317.3,-218.83 313.19,-217.03 309.53,-215.15 306.33,-213.2 303.6,-211.16 301.36,-209.06 299.6,-206.89 298.35,-204.65 297.61,-202.36 297.37,-200.03 297.65,-197.64 298.43,-195.22 299.72,-192.78 301.5,-190.31 303.78,-187.82 306.53,-185.33 309.75,-182.85 313.42,-180.37 317.53,-177.92 322.06,-175.49 326.98,-173.11 332.28,-170.77 337.92,-168.49 343.9,-166.28 350.19,-164.14 356.75,-162.09"/>
<text text-anchor="middle" x="453.1" y="-190.65" font-family="sans-serif" font-size="16.00">EjecucionManagement</text>
</g>
<!-- EjecucionManagement&#45;&gt;BodegaManagement -->
<g id="edge3" class="edge">
<title>EjecucionManagement&#45;&gt;BodegaManagement</title>
<path fill="none" stroke="black" stroke-width="2" d="M367.74,-158.78C344.97,-149.17 320.47,-138.51 298.1,-128.11 270.61,-115.32 240.84,-100.4 214.87,-87.01"/>
<text text-anchor="middle" x="373.6" y="-118.51" font-family="sans-serif" font-size="12.00"> &#160;&#160;&#160;&#160;&#160;&#160;&#160;&#160;&#160;&#160;&#160;&#160;&#160;&#160;&#160;&#160;&#160;&#160;&#160;&#160;&#160;&#160;&#160;&#160;&#160;&#160;&#160;&#160;&#160;&#160;&#160;&#160;&#160;&#160;&#160;&#160;&#160;&#160;&#160;</text>
<polygon fill="white" stroke="transparent" points="208.87,-78.01 208.87,-95.01 221.87,-95.01 221.87,-78.01 208.87,-78.01"/>
<text text-anchor="start" x="210.87" y="-83.41" font-family="sans-serif" font-size="12.00">D</text>
<polygon fill="white" stroke="transparent" points="361.74,-149.78 361.74,-166.78 374.74,-166.78 374.74,-149.78 361.74,-149.78"/>
<text text-anchor="start" x="363.74" y="-155.18" font-family="sans-serif" font-size="12.00">U</text>
</g>
<!-- EjecucionManagement&#45;&gt;BodegaTercerosService -->
<g id="edge2" class="edge">
<title>EjecucionManagement&#45;&gt;BodegaTercerosService</title>
<path fill="none" stroke="black" stroke-width="2" d="M453.1,-146.34C453.1,-129.29 453.1,-110.12 453.1,-93.36"/>
<text text-anchor="middle" x="528.6" y="-118.51" font-family="sans-serif" font-size="12.00"> &#160;&#160;&#160;&#160;&#160;&#160;&#160;&#160;&#160;&#160;&#160;&#160;&#160;&#160;&#160;&#160;&#160;&#160;&#160;&#160;&#160;&#160;&#160;&#160;&#160;&#160;&#160;&#160;&#160;&#160;&#160;&#160;&#160;&#160;&#160;&#160;&#160;&#160;&#160;</text>
<polygon fill="white" stroke="transparent" points="447.1,-84.36 447.1,-101.36 460.1,-101.36 460.1,-84.36 447.1,-84.36"/>
<text text-anchor="start" x="449.1" y="-89.76" font-family="sans-serif" font-size="12.00">D</text>
<polygon fill="white" stroke="transparent" points="447.1,-137.34 447.1,-154.34 460.1,-154.34 460.1,-137.34 447.1,-137.34"/>
<text text-anchor="start" x="449.1" y="-142.74" font-family="sans-serif" font-size="12.00">U</text>
</g>
<!-- EjecucionManagement&#45;&gt;CDManagement -->
<g id="edge1" class="edge">
<title>EjecucionManagement&#45;&gt;CDManagement</title>
<path fill="none" stroke="black" stroke-width="2" d="M544.62,-157.34C565.72,-148.33 587.9,-138.31 608.1,-128.11 633.33,-115.36 660.3,-99.7 683.24,-85.73"/>
<text text-anchor="middle" x="706.6" y="-118.51" font-family="sans-serif" font-size="12.00"> &#160;&#160;&#160;&#160;&#160;&#160;&#160;&#160;&#160;&#160;&#160;&#160;&#160;&#160;&#160;&#160;&#160;&#160;&#160;&#160;&#160;&#160;&#160;&#160;&#160;&#160;&#160;&#160;&#160;&#160;&#160;&#160;&#160;&#160;&#160;&#160;&#160;&#160;&#160;</text>
<polygon fill="white" stroke="transparent" points="677.24,-76.73 677.24,-93.73 690.24,-93.73 690.24,-76.73 677.24,-76.73"/>
<text text-anchor="start" x="679.24" y="-82.13" font-family="sans-serif" font-size="12.00">D</text>
<polygon fill="white" stroke="transparent" points="538.62,-148.34 538.62,-165.34 551.62,-165.34 551.62,-148.34 538.62,-148.34"/>
<text text-anchor="start" x="540.62" y="-153.74" font-family="sans-serif" font-size="12.00">U</text>
</g>
<!-- FacilitacionService -->
<g id="node5" class="node">
<title>FacilitacionService</title>
<polygon fill="none" stroke="black" stroke-width="2" points="390.97,-375.26 384.06,-373.84 377.36,-372.32 370.91,-370.72 364.72,-369.03 358.83,-367.26 353.26,-365.43 348.03,-363.52 343.16,-361.56 338.67,-359.55 334.58,-357.49 330.91,-355.4 327.67,-353.26 324.86,-351.11 322.5,-348.93 320.6,-346.73 319.15,-344.53 318.16,-342.32 317.64,-340.12 317.57,-337.92 317.95,-335.74 318.78,-333.57 320.04,-331.43 321.73,-329.31 323.83,-327.23 326.33,-325.18 329.21,-323.17 332.46,-321.2 336.05,-319.28 339.96,-317.42 344.19,-315.6 348.69,-313.85 353.46,-312.15 358.46,-310.52 363.68,-308.96 369.1,-307.47 374.68,-306.05 380.41,-304.7 386.27,-303.43 392.23,-302.24 398.26,-301.14 404.36,-300.12 410.5,-299.19 416.67,-298.34 422.83,-297.59 428.99,-296.93 435.11,-296.37 441.19,-295.9 447.21,-295.54 453.17,-295.27 459.04,-295.11 464.82,-295.05 470.5,-295.1 476.08,-295.25 481.54,-295.51 486.87,-295.88 492.08,-296.36 497.16,-296.95 502.1,-297.64 506.91,-298.44 511.57,-299.36 516.08,-300.38 520.45,-301.5 524.67,-302.73 528.73,-304.07 532.64,-305.5 536.39,-307.03 539.99,-308.66 543.42,-310.38 546.68,-312.19 549.77,-314.08 552.68,-316.05 555.42,-318.09 557.97,-320.21 560.33,-322.39 562.49,-324.63 564.44,-326.91 566.19,-329.25 567.71,-331.62 569,-334.02 570.06,-336.44 570.87,-338.88 571.43,-341.33 571.72,-343.78 571.74,-346.22 571.48,-348.65 570.93,-351.05 570.08,-353.41 568.93,-355.74 567.46,-358.02 565.67,-360.24 563.56,-362.39 561.13,-364.48 558.36,-366.48 555.26,-368.4 551.83,-370.23 548.06,-371.95 543.97,-373.57 539.56,-375.08 534.82,-376.47 529.78,-377.75 524.44,-378.89 518.81,-379.91 512.9,-380.8 506.74,-381.55 500.33,-382.16 493.69,-382.64 486.86,-382.98 479.84,-383.18 472.66,-383.24 465.34,-383.16 457.92,-382.95 450.42,-382.59 442.87,-382.11 435.29,-381.49 427.71,-380.75 420.17,-379.88 412.7,-378.89 405.32,-377.79 398.07,-376.58 390.97,-375.26"/>
<text text-anchor="middle" x="453.1" y="-333.81" font-family="sans-serif" font-size="16.00">FacilitacionService</text>
</g>
<!-- FacilitacionService&#45;&gt;EjecucionManagement -->
<g id="edge4" class="edge">
<title>FacilitacionService&#45;&gt;EjecucionManagement</title>
<path fill="none" stroke="black" stroke-width="2" d="M453.1,-295.02C453.1,-276.48 453.1,-254.71 453.1,-236.26"/>
<text text-anchor="middle" x="528.6" y="-264.2" font-family="sans-serif" font-size="12.00"> &#160;&#160;&#160;&#160;&#160;&#160;&#160;&#160;&#160;&#160;&#160;&#160;&#160;&#160;&#160;&#160;&#160;&#160;&#160;&#160;&#160;&#160;&#160;&#160;&#160;&#160;&#160;&#160;&#160;&#160;&#160;&#160;&#160;&#160;&#160;&#160;&#160;&#160;&#160;</text>
<polygon fill="white" stroke="transparent" points="447.1,-227.26 447.1,-244.26 460.1,-244.26 460.1,-227.26 447.1,-227.26"/>
<text text-anchor="start" x="449.1" y="-232.66" font-family="sans-serif" font-size="12.00">D</text>
<polygon fill="white" stroke="transparent" points="447.1,-286.02 447.1,-303.02 460.1,-303.02 460.1,-286.02 447.1,-286.02"/>
<text text-anchor="start" x="449.1" y="-291.42" font-family="sans-serif" font-size="12.00">U</text>
</g>
<!-- InboundManagement -->
<g id="node6" class="node">
<title>InboundManagement</title>
<polygon fill="none" stroke="black" stroke-width="2" points="525.56,-774.56 523.56,-777.38 521.19,-780.14 518.48,-782.85 515.43,-785.49 512.05,-788.05 508.34,-790.52 504.32,-792.89 500.01,-795.16 495.42,-797.31 490.55,-799.33 485.42,-801.22 480.06,-802.97 474.46,-804.58 468.65,-806.04 462.65,-807.34 456.47,-808.49 450.13,-809.49 443.63,-810.32 437.02,-810.99 430.28,-811.5 423.46,-811.85 416.55,-812.05 409.59,-812.09 402.59,-811.98 395.56,-811.72 388.53,-811.31 381.5,-810.77 374.51,-810.09 367.56,-809.28 360.68,-808.36 353.88,-807.31 347.17,-806.16 340.58,-804.91 334.12,-803.56 327.81,-802.13 321.66,-800.62 315.69,-799.03 309.91,-797.37 304.34,-795.66 298.99,-793.9 293.89,-792.09 289.03,-790.23 284.43,-788.35 280.11,-786.44 276.08,-784.5 272.34,-782.55 268.92,-780.58 265.81,-778.6 263.03,-776.62 260.59,-774.63 258.5,-772.65 256.76,-770.67 255.37,-768.69 254.35,-766.72 253.69,-764.77 253.4,-762.82 253.49,-760.89 253.95,-758.97 254.79,-757.07 256,-755.19 257.59,-753.33 259.54,-751.48 261.86,-749.66 264.55,-747.86 267.59,-746.08 270.97,-744.33 274.7,-742.61 278.77,-740.91 283.15,-739.25 287.84,-737.62 292.84,-736.03 298.11,-734.48 303.66,-732.98 309.47,-731.52 315.52,-730.11 321.79,-728.76 328.26,-727.46 334.93,-726.24 341.76,-725.08 348.75,-724 355.86,-723 363.08,-722.08 370.38,-721.26 377.76,-720.53 385.18,-719.91 392.62,-719.39 400.06,-718.99 407.47,-718.7 414.85,-718.54 422.16,-718.5 429.38,-718.6 436.49,-718.83 443.47,-719.19 450.3,-719.7 456.96,-720.35 463.42,-721.15 469.68,-722.08 475.71,-723.17 481.49,-724.4 487.01,-725.77 492.25,-727.28 497.2,-728.93 501.84,-730.71 506.16,-732.63 510.15,-734.66 513.8,-736.82 517.09,-739.09 520.02,-741.46 522.59,-743.93 524.77,-746.48 526.58,-749.11 528.01,-751.82 529.05,-754.58 529.71,-757.38 529.97,-760.22 529.85,-763.09 529.35,-765.97 528.46,-768.85 527.19,-771.72 525.56,-774.56"/>
<text text-anchor="middle" x="391.1" y="-760.35" font-family="sans-serif" font-size="16.00">InboundManagement</text>
</g>
<!-- InventarioService -->
<g id="node7" class="node">
<title>InventarioService</title>
<polygon fill="none" stroke="black" stroke-width="2" points="424.84,-580.62 432.3,-581.31 439.64,-582.11 446.82,-583.02 453.81,-584.04 460.58,-585.16 467.11,-586.39 473.38,-587.71 479.35,-589.12 485,-590.62 490.32,-592.21 495.28,-593.87 499.87,-595.62 504.07,-597.43 507.87,-599.3 511.27,-601.24 514.24,-603.23 516.79,-605.26 518.91,-607.35 520.61,-609.47 521.87,-611.62 522.71,-613.8 523.12,-616.01 523.13,-618.22 522.72,-620.45 521.92,-622.69 520.74,-624.92 519.19,-627.15 517.28,-629.37 515.03,-631.57 512.45,-633.74 509.57,-635.89 506.41,-638.01 502.97,-640.09 499.29,-642.12 495.37,-644.11 491.24,-646.04 486.92,-647.91 482.43,-649.73 477.78,-651.47 473,-653.14 468.1,-654.74 463.09,-656.26 458,-657.69 452.84,-659.03 447.62,-660.28 442.36,-661.44 437.06,-662.49 431.74,-663.45 426.41,-664.3 421.09,-665.04 415.77,-665.68 410.46,-666.2 405.18,-666.6 399.92,-666.9 394.69,-667.07 389.51,-667.13 384.36,-667.07 379.26,-666.89 374.21,-666.59 369.21,-666.17 364.27,-665.63 359.38,-664.97 354.55,-664.2 349.8,-663.32 345.11,-662.32 340.49,-661.21 335.95,-659.99 331.5,-658.67 327.13,-657.24 322.86,-655.72 318.7,-654.1 314.64,-652.39 310.71,-650.59 306.91,-648.72 303.24,-646.77 299.73,-644.75 296.39,-642.66 293.22,-640.52 290.24,-638.32 287.46,-636.07 284.9,-633.79 282.56,-631.47 280.48,-629.13 278.65,-626.77 277.1,-624.4 275.83,-622.02 274.86,-619.64 274.21,-617.27 273.88,-614.92 273.9,-612.59 274.25,-610.29 274.97,-608.03 276.05,-605.81 277.51,-603.64 279.34,-601.53 281.55,-599.49 284.15,-597.51 287.12,-595.61 290.48,-593.79 294.22,-592.05 298.33,-590.41 302.79,-588.86 307.62,-587.41 312.78,-586.07 318.27,-584.84 324.07,-583.71 330.16,-582.7 336.53,-581.81 343.14,-581.04 349.98,-580.38 357.03,-579.85 364.25,-579.44 371.62,-579.16 379.11,-579 386.68,-578.97 394.32,-579.06 401.99,-579.27 409.65,-579.6 417.28,-580.05 424.84,-580.62"/>
<text text-anchor="middle" x="395.1" y="-619.48" font-family="sans-serif" font-size="16.00">InventarioService</text>
</g>
<!-- InboundManagement&#45;&gt;InventarioService -->
<g id="edge5" class="edge">
<title>InboundManagement&#45;&gt;InventarioService</title>
<path fill="none" stroke="black" stroke-width="2" d="M392.36,-719.21C392.84,-702.68 393.38,-683.92 393.86,-667.46"/>
<text text-anchor="middle" x="469.6" y="-688.84" font-family="sans-serif" font-size="12.00"> &#160;&#160;&#160;&#160;&#160;&#160;&#160;&#160;&#160;&#160;&#160;&#160;&#160;&#160;&#160;&#160;&#160;&#160;&#160;&#160;&#160;&#160;&#160;&#160;&#160;&#160;&#160;&#160;&#160;&#160;&#160;&#160;&#160;&#160;&#160;&#160;&#160;&#160;&#160;</text>
<polygon fill="white" stroke="transparent" points="387.86,-658.46 387.86,-675.46 400.86,-675.46 400.86,-658.46 387.86,-658.46"/>
<text text-anchor="start" x="389.86" y="-663.86" font-family="sans-serif" font-size="12.00">D</text>
<polygon fill="white" stroke="transparent" points="386.36,-710.21 386.36,-727.21 399.36,-727.21 399.36,-710.21 386.36,-710.21"/>
<text text-anchor="start" x="388.36" y="-715.61" font-family="sans-serif" font-size="12.00">U</text>
</g>
<!-- OutboundManagement -->
<g id="node8" class="node">
<title>OutboundManagement</title>
<polygon fill="none" stroke="black" stroke-width="2" points="537.13,-466.76 540.41,-469.44 543.29,-472.15 545.75,-474.87 547.8,-477.6 549.41,-480.31 550.58,-483.01 551.29,-485.67 551.55,-488.3 551.35,-490.88 550.69,-493.4 549.57,-495.86 547.98,-498.24 545.94,-500.55 543.44,-502.76 540.5,-504.88 537.12,-506.91 533.31,-508.83 529.09,-510.64 524.47,-512.34 519.46,-513.93 514.08,-515.4 508.35,-516.75 502.3,-517.98 495.93,-519.1 489.27,-520.09 482.36,-520.97 475.2,-521.72 467.83,-522.37 460.27,-522.89 452.55,-523.31 444.69,-523.61 436.72,-523.81 428.68,-523.91 420.58,-523.9 412.45,-523.79 404.32,-523.59 396.22,-523.3 388.17,-522.92 380.19,-522.46 372.32,-521.91 364.58,-521.28 356.98,-520.58 349.56,-519.8 342.33,-518.96 335.31,-518.04 328.52,-517.06 321.97,-516.01 315.69,-514.9 309.69,-513.73 303.99,-512.49 298.58,-511.2 293.5,-509.86 288.74,-508.45 284.31,-506.99 280.23,-505.47 276.49,-503.91 273.11,-502.28 270.08,-500.61 267.41,-498.88 265.1,-497.11 263.16,-495.28 261.57,-493.41 260.35,-491.49 259.48,-489.53 258.97,-487.53 258.82,-485.49 259.01,-483.41 259.55,-481.3 260.43,-479.16 261.64,-477 263.19,-474.81 265.06,-472.61 267.24,-470.4 269.74,-468.18 272.54,-465.97 275.64,-463.76 279.02,-461.57 282.69,-459.4 286.63,-457.26 290.84,-455.16 295.31,-453.1 300.03,-451.09 304.98,-449.15 310.17,-447.27 315.58,-445.47 321.21,-443.76 327.03,-442.14 333.05,-440.62 339.25,-439.22 345.62,-437.93 352.14,-436.76 358.82,-435.73 365.62,-434.83 372.54,-434.07 379.57,-433.47 386.69,-433.01 393.88,-432.71 401.13,-432.58 408.42,-432.6 415.74,-432.79 423.06,-433.15 430.37,-433.67 437.65,-434.35 444.89,-435.2 452.05,-436.21 459.12,-437.37 466.09,-438.69 472.92,-440.16 479.6,-441.77 486.11,-443.52 492.42,-445.4 498.52,-447.4 504.38,-449.52 509.98,-451.74 515.31,-454.06 520.34,-456.47 525.06,-458.95 529.44,-461.5 533.47,-464.11 537.13,-466.76"/>
<text text-anchor="middle" x="400.1" y="-477.48" font-family="sans-serif" font-size="16.00">OutboundManagement</text>
</g>
<!-- InventarioService&#45;&gt;OutboundManagement -->
<g id="edge6" class="edge">
<title>InventarioService&#45;&gt;OutboundManagement</title>
<path fill="none" stroke="black" stroke-width="2" d="M396.65,-578.75C397.28,-561.09 398.01,-540.79 398.63,-523.39"/>
<text text-anchor="middle" x="473.6" y="-551.52" font-family="sans-serif" font-size="12.00"> &#160;&#160;&#160;&#160;&#160;&#160;&#160;&#160;&#160;&#160;&#160;&#160;&#160;&#160;&#160;&#160;&#160;&#160;&#160;&#160;&#160;&#160;&#160;&#160;&#160;&#160;&#160;&#160;&#160;&#160;&#160;&#160;&#160;&#160;&#160;&#160;&#160;&#160;&#160;</text>
<polygon fill="white" stroke="transparent" points="392.63,-514.39 392.63,-531.39 405.63,-531.39 405.63,-514.39 392.63,-514.39"/>
<text text-anchor="start" x="394.63" y="-519.79" font-family="sans-serif" font-size="12.00">D</text>
<polygon fill="white" stroke="transparent" points="390.65,-569.75 390.65,-586.75 403.65,-586.75 403.65,-569.75 390.65,-569.75"/>
<text text-anchor="start" x="392.65" y="-575.15" font-family="sans-serif" font-size="12.00">U</text>
</g>
<!-- OutboundManagement&#45;&gt;FacilitacionService -->
<g id="edge7" class="edge">
<title>OutboundManagement&#45;&gt;FacilitacionService</title>
<path fill="none" stroke="black" stroke-width="2" d="M376.18,-433.49C373.62,-422.71 373.41,-411.47 378.1,-401.43 382.41,-392.19 388.82,-383.84 396.11,-376.45"/>
<text text-anchor="middle" x="453.6" y="-404.83" font-family="sans-serif" font-size="12.00"> &#160;&#160;&#160;&#160;&#160;&#160;&#160;&#160;&#160;&#160;&#160;&#160;&#160;&#160;&#160;&#160;&#160;&#160;&#160;&#160;&#160;&#160;&#160;&#160;&#160;&#160;&#160;&#160;&#160;&#160;&#160;&#160;&#160;&#160;&#160;&#160;&#160;&#160;&#160;</text>
<polygon fill="white" stroke="transparent" points="390.11,-367.45 390.11,-384.45 403.11,-384.45 403.11,-367.45 390.11,-367.45"/>
<text text-anchor="start" x="392.11" y="-372.85" font-family="sans-serif" font-size="12.00">D</text>
<polygon fill="white" stroke="transparent" points="370.18,-424.49 370.18,-441.49 383.18,-441.49 383.18,-424.49 370.18,-424.49"/>
<text text-anchor="start" x="372.18" y="-429.89" font-family="sans-serif" font-size="12.00">U</text>
</g>
<!-- OrdenCore -->
<g id="node9" class="node">
<title>OrdenCore</title>
<polygon fill="none" stroke="black" stroke-width="2" points="305.65,-883.26 309.01,-885.54 312.16,-887.87 315.09,-890.26 317.79,-892.68 320.23,-895.13 322.42,-897.61 324.33,-900.1 325.97,-902.59 327.33,-905.07 328.39,-907.54 329.15,-909.99 329.62,-912.41 329.78,-914.79 329.64,-917.13 329.2,-919.42 328.46,-921.65 327.41,-923.82 326.08,-925.93 324.45,-927.96 322.55,-929.92 320.37,-931.8 317.93,-933.6 315.23,-935.31 312.3,-936.94 309.13,-938.47 305.75,-939.92 302.17,-941.28 298.4,-942.54 294.47,-943.71 290.38,-944.79 286.15,-945.77 281.79,-946.66 277.34,-947.46 272.79,-948.17 268.18,-948.79 263.51,-949.31 258.8,-949.75 254.08,-950.09 249.34,-950.35 244.62,-950.52 239.93,-950.61 235.27,-950.6 230.67,-950.52 226.13,-950.34 221.68,-950.09 217.31,-949.74 213.05,-949.32 208.9,-948.81 204.87,-948.22 200.97,-947.54 197.21,-946.79 193.6,-945.95 190.13,-945.02 186.82,-944.02 183.67,-942.93 180.68,-941.76 177.86,-940.5 175.22,-939.17 172.74,-937.75 170.44,-936.26 168.31,-934.69 166.36,-933.04 164.58,-931.31 162.98,-929.51 161.56,-927.64 160.31,-925.7 159.24,-923.7 158.35,-921.63 157.62,-919.51 157.07,-917.33 156.7,-915.11 156.49,-912.84 156.46,-910.53 156.6,-908.19 156.91,-905.83 157.4,-903.45 158.05,-901.05 158.87,-898.65 159.87,-896.26 161.03,-893.88 162.36,-891.51 163.87,-889.18 165.54,-886.88 167.38,-884.63 169.39,-882.43 171.57,-880.3 173.91,-878.24 176.43,-876.26 179.1,-874.36 181.94,-872.57 184.93,-870.88 188.08,-869.3 191.38,-867.84 194.83,-866.51 198.43,-865.31 202.16,-864.25 206.02,-863.33 210.01,-862.56 214.11,-861.94 218.31,-861.48 222.62,-861.17 227.01,-861.02 231.48,-861.04 236.02,-861.21 240.61,-861.54 245.23,-862.03 249.88,-862.68 254.55,-863.48 259.21,-864.43 263.85,-865.53 268.45,-866.77 273.01,-868.15 277.5,-869.66 281.9,-871.29 286.21,-873.04 290.39,-874.9 294.45,-876.86 298.35,-878.91 302.09,-881.04 305.65,-883.26"/>
<text text-anchor="middle" x="237.1" y="-905.42" font-family="sans-serif" font-size="16.00">OrdenCore</text>
</g>
<!-- OrdenCore&#45;&gt;EjecucionManagement -->
<g id="edge9" class="edge">
<title>OrdenCore&#45;&gt;EjecucionManagement</title>
<path fill="none" stroke="black" stroke-width="2" d="M229.15,-861C225.13,-833.19 221.1,-797.27 221.1,-765.15 221.1,-765.15 221.1,-765.15 221.1,-336.61 221.1,-278.62 274.66,-243.77 330.31,-223.21"/>
<text text-anchor="middle" x="296.6" y="-551.52" font-family="sans-serif" font-size="12.00"> &#160;&#160;&#160;&#160;&#160;&#160;&#160;&#160;&#160;&#160;&#160;&#160;&#160;&#160;&#160;&#160;&#160;&#160;&#160;&#160;&#160;&#160;&#160;&#160;&#160;&#160;&#160;&#160;&#160;&#160;&#160;&#160;&#160;&#160;&#160;&#160;&#160;&#160;&#160;</text>
<polygon fill="white" stroke="transparent" points="309.31,-213.21 309.31,-232.21 324.31,-232.21 324.31,-213.21 309.31,-213.21"/>
<polyline fill="none" stroke="black" points="324.31,-213.21 324.31,-232.21 "/>
<text text-anchor="start" x="312.31" y="-219.61" font-family="sans-serif" font-size="12.00">D</text>
<polygon fill="white" stroke="transparent" points="324.31,-213.21 324.31,-232.21 352.31,-232.21 352.31,-213.21 324.31,-213.21"/>
<polygon fill="none" stroke="black" points="324.31,-213.21 324.31,-232.21 352.31,-232.21 352.31,-213.21 324.31,-213.21"/>
<text text-anchor="start" x="327.31" y="-219.61" font-family="sans-serif" font-size="12.00">ACL</text>
<polygon fill="white" stroke="transparent" points="196.15,-851 196.15,-870 211.15,-870 211.15,-851 196.15,-851"/>
<polyline fill="none" stroke="black" points="211.15,-851 211.15,-870 "/>
<text text-anchor="start" x="199.15" y="-857.4" font-family="sans-serif" font-size="12.00">U</text>
<polygon fill="white" stroke="transparent" points="211.15,-851 211.15,-870 262.15,-870 262.15,-851 211.15,-851"/>
<polygon fill="none" stroke="black" points="211.15,-851 211.15,-870 262.15,-870 262.15,-851 211.15,-851"/>
<text text-anchor="start" x="214.15" y="-857.4" font-family="sans-serif" font-size="12.00">OHS, PL</text>
</g>
<!-- OrdenCore&#45;&gt;InboundManagement -->
<g id="edge8" class="edge">
<title>OrdenCore&#45;&gt;InboundManagement</title>
<path fill="none" stroke="black" stroke-width="2" d="M278.37,-869.88C299.48,-850.26 325.21,-826.37 346.75,-806.36"/>
<text text-anchor="middle" x="394.6" y="-833.27" font-family="sans-serif" font-size="12.00"> &#160;&#160;&#160;&#160;&#160;&#160;&#160;&#160;&#160;&#160;&#160;&#160;&#160;&#160;&#160;&#160;&#160;&#160;&#160;&#160;&#160;&#160;&#160;&#160;&#160;&#160;&#160;&#160;&#160;&#160;&#160;&#160;&#160;&#160;&#160;&#160;&#160;&#160;&#160;</text>
<polygon fill="white" stroke="transparent" points="340.75,-797.36 340.75,-814.36 353.75,-814.36 353.75,-797.36 340.75,-797.36"/>
<text text-anchor="start" x="342.75" y="-802.76" font-family="sans-serif" font-size="12.00">D</text>
<polygon fill="white" stroke="transparent" points="245.37,-859.88 245.37,-878.88 260.37,-878.88 260.37,-859.88 245.37,-859.88"/>
<polyline fill="none" stroke="black" points="260.37,-859.88 260.37,-878.88 "/>
<text text-anchor="start" x="248.37" y="-866.28" font-family="sans-serif" font-size="12.00">U</text>
<polygon fill="white" stroke="transparent" points="260.37,-859.88 260.37,-878.88 311.37,-878.88 311.37,-859.88 260.37,-859.88"/>
<polygon fill="none" stroke="black" points="260.37,-859.88 260.37,-878.88 311.37,-878.88 311.37,-859.88 260.37,-859.88"/>
<text text-anchor="start" x="263.37" y="-866.28" font-family="sans-serif" font-size="12.00">OHS, PL</text>
</g>
<!-- PedidoCore -->
<g id="node10" class="node">
<title>PedidoCore</title>
<polygon fill="none" stroke="black" stroke-width="2" points="711.83,-438.25 717.46,-438.79 723.02,-439.44 728.46,-440.21 733.78,-441.09 738.95,-442.07 743.95,-443.16 748.76,-444.35 753.35,-445.64 757.73,-447.03 761.86,-448.5 765.73,-450.06 769.33,-451.7 772.65,-453.42 775.69,-455.21 778.42,-457.07 780.84,-458.99 782.96,-460.97 784.76,-463 786.24,-465.08 787.41,-467.2 788.26,-469.35 788.8,-471.54 789.03,-473.74 788.96,-475.97 788.6,-478.21 787.95,-480.45 787.02,-482.7 785.83,-484.94 784.38,-487.17 782.69,-489.39 780.77,-491.59 778.63,-493.75 776.28,-495.89 773.75,-497.98 771.03,-500.04 768.16,-502.04 765.13,-503.99 761.97,-505.88 758.69,-507.71 755.3,-509.46 751.81,-511.15 748.24,-512.75 744.59,-514.28 740.88,-515.72 737.12,-517.06 733.31,-518.32 729.47,-519.47 725.61,-520.52 721.73,-521.47 717.83,-522.32 713.93,-523.05 710.03,-523.67 706.13,-524.18 702.24,-524.57 698.36,-524.85 694.5,-525.01 690.66,-525.05 686.84,-524.97 683.04,-524.77 679.27,-524.45 675.52,-524.01 671.81,-523.46 668.14,-522.78 664.49,-521.99 660.89,-521.09 657.34,-520.08 653.82,-518.95 650.36,-517.72 646.96,-516.39 643.62,-514.96 640.34,-513.43 637.14,-511.81 634.02,-510.1 630.99,-508.31 628.06,-506.44 625.23,-504.5 622.52,-502.49 619.93,-500.41 617.48,-498.29 615.17,-496.11 613.03,-493.89 611.05,-491.63 609.25,-489.34 607.64,-487.02 606.23,-484.69 605.04,-482.35 604.07,-480 603.34,-477.66 602.85,-475.32 602.61,-473.01 602.64,-470.71 602.94,-468.45 603.51,-466.22 604.37,-464.04 605.52,-461.9 606.96,-459.82 608.68,-457.8 610.71,-455.85 613.02,-453.98 615.63,-452.18 618.52,-450.46 621.69,-448.83 625.13,-447.3 628.84,-445.86 632.81,-444.53 637.01,-443.3 641.45,-442.17 646.1,-441.16 650.95,-440.26 655.99,-439.48 661.19,-438.81 666.53,-438.26 671.99,-437.84 677.56,-437.53 683.2,-437.35 688.91,-437.29 694.65,-437.35 700.39,-437.53 706.13,-437.83 711.83,-438.25"/>
<text text-anchor="middle" x="694.1" y="-477.48" font-family="sans-serif" font-size="16.00">PedidoCore</text>
</g>
<!-- PedidoCore&#45;&gt;EjecucionManagement -->
<g id="edge10" class="edge">
<title>PedidoCore&#45;&gt;EjecucionManagement</title>
<path fill="none" stroke="black" stroke-width="2" d="M705.27,-437.54C706.69,-425.67 706.61,-412.89 703.1,-401.43 681.02,-329.3 666.38,-308.69 608.1,-260.8 591.18,-246.9 570.87,-235.53 550.6,-226.41"/>
<text text-anchor="middle" x="772.6" y="-334.51" font-family="sans-serif" font-size="12.00"> &#160;&#160;&#160;&#160;&#160;&#160;&#160;&#160;&#160;&#160;&#160;&#160;&#160;&#160;&#160;&#160;&#160;&#160;&#160;&#160;&#160;&#160;&#160;&#160;&#160;&#160;&#160;&#160;&#160;&#160;&#160;&#160;&#160;&#160;&#160;&#160;&#160;&#160;&#160;</text>
<polygon fill="white" stroke="transparent" points="529.6,-216.41 529.6,-235.41 544.6,-235.41 544.6,-216.41 529.6,-216.41"/>
<polyline fill="none" stroke="black" points="544.6,-216.41 544.6,-235.41 "/>
<text text-anchor="start" x="532.6" y="-222.81" font-family="sans-serif" font-size="12.00">D</text>
<polygon fill="white" stroke="transparent" points="544.6,-216.41 544.6,-235.41 572.6,-235.41 572.6,-216.41 544.6,-216.41"/>
<polygon fill="none" stroke="black" points="544.6,-216.41 544.6,-235.41 572.6,-235.41 572.6,-216.41 544.6,-216.41"/>
<text text-anchor="start" x="547.6" y="-222.81" font-family="sans-serif" font-size="12.00">ACL</text>
<polygon fill="white" stroke="transparent" points="672.27,-427.54 672.27,-446.54 687.27,-446.54 687.27,-427.54 672.27,-427.54"/>
<polyline fill="none" stroke="black" points="687.27,-427.54 687.27,-446.54 "/>
<text text-anchor="start" x="675.27" y="-433.94" font-family="sans-serif" font-size="12.00">U</text>
<polygon fill="white" stroke="transparent" points="687.27,-427.54 687.27,-446.54 738.27,-446.54 738.27,-427.54 687.27,-427.54"/>
<polygon fill="none" stroke="black" points="687.27,-427.54 687.27,-446.54 738.27,-446.54 738.27,-427.54 687.27,-427.54"/>
<text text-anchor="start" x="690.27" y="-433.94" font-family="sans-serif" font-size="12.00">OHS, PL</text>
</g>
<!-- PedidoCore&#45;&gt;FacilitacionService -->
<g id="edge11" class="edge">
<title>PedidoCore&#45;&gt;FacilitacionService</title>
<path fill="none" stroke="black" stroke-width="2" d="M619.91,-449.59C597.58,-439.37 573.38,-427.29 552.1,-414.43 536.17,-404.79 519.77,-393.08 505.01,-381.76"/>
<text text-anchor="middle" x="627.6" y="-404.83" font-family="sans-serif" font-size="12.00"> &#160;&#160;&#160;&#160;&#160;&#160;&#160;&#160;&#160;&#160;&#160;&#160;&#160;&#160;&#160;&#160;&#160;&#160;&#160;&#160;&#160;&#160;&#160;&#160;&#160;&#160;&#160;&#160;&#160;&#160;&#160;&#160;&#160;&#160;&#160;&#160;&#160;&#160;&#160;</text>
<polygon fill="white" stroke="transparent" points="488.01,-371.76 488.01,-390.76 503.01,-390.76 503.01,-371.76 488.01,-371.76"/>
<polyline fill="none" stroke="black" points="503.01,-371.76 503.01,-390.76 "/>
<text text-anchor="start" x="491.01" y="-378.16" font-family="sans-serif" font-size="12.00">D</text>
<polygon fill="white" stroke="transparent" points="503.01,-371.76 503.01,-390.76 523.01,-390.76 523.01,-371.76 503.01,-371.76"/>
<polygon fill="none" stroke="black" points="503.01,-371.76 503.01,-390.76 523.01,-390.76 523.01,-371.76 503.01,-371.76"/>
<text text-anchor="start" x="506.01" y="-378.16" font-family="sans-serif" font-size="12.00">CF</text>
<polygon fill="white" stroke="transparent" points="586.91,-439.59 586.91,-458.59 601.91,-458.59 601.91,-439.59 586.91,-439.59"/>
<polyline fill="none" stroke="black" points="601.91,-439.59 601.91,-458.59 "/>
<text text-anchor="start" x="589.91" y="-445.99" font-family="sans-serif" font-size="12.00">U</text>
<polygon fill="white" stroke="transparent" points="601.91,-439.59 601.91,-458.59 652.91,-458.59 652.91,-439.59 601.91,-439.59"/>
<polygon fill="none" stroke="black" points="601.91,-439.59 601.91,-458.59 652.91,-458.59 652.91,-439.59 601.91,-439.59"/>
<text text-anchor="start" x="604.91" y="-445.99" font-family="sans-serif" font-size="12.00">OHS, PL</text>
</g>
</g>
</svg>
